<?xml version="1.0" encoding="us-ascii" standalone="no"?><svg xmlns="http://www.w3.org/2000/svg" xmlns:xlink="http://www.w3.org/1999/xlink" contentStyleType="text/css" height="469px" preserveAspectRatio="none" style="width:651px;height:469px;background:#FFFFFF;" version="1.1" viewBox="0 0 651 469" width="651px" zoomAndPan="magnify"><defs/><g><text fill="#000000" font-family="sans-serif" font-size="14" font-weight="bold" lengthAdjust="spacing" textLength="326" x="161.5" y="27.9951">Nominal example of Simulator API usage</text><rect fill="#FFFFFF" height="62.2656" style="stroke:#181818;stroke-width:1.0;" width="10" x="447.5" y="149.7266"/><line style="stroke:#181818;stroke-width:0.5;stroke-dasharray:5.0,5.0;" x1="28" x2="28" y1="118.5938" y2="388.6563"/><line style="stroke:#181818;stroke-width:0.5;stroke-dasharray:5.0,5.0;" x1="452" x2="452" y1="118.5938" y2="388.6563"/><line style="stroke:#181818;stroke-width:0.5;stroke-dasharray:5.0,5.0;" x1="578" x2="578" y1="118.5938" y2="388.6563"/><text fill="#000000" font-family="sans-serif" font-size="14" lengthAdjust="spacing" textLength="41" x="5" y="115.292">Client</text><ellipse cx="28.5" cy="50.7969" fill="#E2E2F0" rx="8" ry="8" style="stroke:#181818;stroke-width:0.5;"/><path d="M28.5,58.7969 L28.5,85.7969 M15.5,66.7969 L41.5,66.7969 M28.5,85.7969 L15.5,100.7969 M28.5,85.7969 L41.5,100.7969 " fill="none" style="stroke:#181818;stroke-width:0.5;"/><text fill="#000000" font-family="sans-serif" font-size="14" lengthAdjust="spacing" textLength="41" x="5" y="400.6514">Client</text><ellipse cx="28.5" cy="412.4531" fill="#E2E2F0" rx="8" ry="8" style="stroke:#181818;stroke-width:0.5;"/><path d="M28.5,420.4531 L28.5,447.4531 M15.5,428.4531 L41.5,428.4531 M28.5,447.4531 L15.5,462.4531 M28.5,447.4531 L41.5,462.4531 " fill="none" style="stroke:#181818;stroke-width:0.5;"/><text fill="#000000" font-family="sans-serif" font-size="14" lengthAdjust="spacing" textLength="91" x="404" y="115.292">SimulatorAPI</text><path d="M432,74.2969 L432,98.2969 M432,86.2969 L449,86.2969 " fill="none" style="stroke:#181818;stroke-width:0.5;"/><ellipse cx="461" cy="86.2969" fill="#E2E2F0" rx="12" ry="12" style="stroke:#181818;stroke-width:0.5;"/><text fill="#000000" font-family="sans-serif" font-size="14" lengthAdjust="spacing" textLength="91" x="404" y="400.6514">SimulatorAPI</text><path d="M432,407.9531 L432,431.9531 M432,419.9531 L449,419.9531 " fill="none" style="stroke:#181818;stroke-width:0.5;"/><ellipse cx="461" cy="419.9531" fill="#E2E2F0" rx="12" ry="12" style="stroke:#181818;stroke-width:0.5;"/><rect fill="#E2E2F0" height="30.2969" rx="2.5" ry="2.5" style="stroke:#181818;stroke-width:0.5;" width="134" x="511" y="87.2969"/><text fill="#000000" font-family="sans-serif" font-size="14" lengthAdjust="spacing" textLength="120" x="518" y="107.292">SimulationResult</text><rect fill="#E2E2F0" height="30.2969" rx="2.5" ry="2.5" style="stroke:#181818;stroke-width:0.5;" width="134" x="511" y="387.6563"/><text fill="#000000" font-family="sans-serif" font-size="14" lengthAdjust="spacing" textLength="120" x="518" y="407.6514">SimulationResult</text><rect fill="#FFFFFF" height="62.2656" style="stroke:#181818;stroke-width:1.0;" width="10" x="447.5" y="149.7266"/><polygon fill="#181818" points="435.5,145.7266,445.5,149.7266,435.5,153.7266,439.5,149.7266" style="stroke:#181818;stroke-width:1.0;"/><line style="stroke:#181818;stroke-width:1.0;" x1="28.5" x2="441.5" y1="149.7266" y2="149.7266"/><text fill="#000000" font-family="sans-serif" font-size="13" lengthAdjust="spacing" textLength="400" x="35.5" y="144.6606">PerformSimulation(/path/to/study, 4 /*Force parallelization*/ )</text><rect fill="#FEFFDD" height="23" style="stroke:#181818;stroke-width:0.5;" width="373" x="266" y="162.7266"/><text fill="#000000" font-family="sans-serif" font-size="13" lengthAdjust="spacing" textLength="365" x="270" y="178.7935">Simulator perfor the simulation on the designated study</text><polygon fill="#181818" points="39.5,207.9922,29.5,211.9922,39.5,215.9922,35.5,211.9922" style="stroke:#181818;stroke-width:1.0;"/><line style="stroke:#181818;stroke-width:1.0;stroke-dasharray:2.0,2.0;" x1="33.5" x2="451.5" y1="211.9922" y2="211.9922"/><text fill="#000000" font-family="sans-serif" font-size="13" lengthAdjust="spacing" textLength="111" x="45.5" y="206.9263">SimulationResult</text><polygon fill="#181818" points="566,237.125,576,241.125,566,245.125,570,241.125" style="stroke:#181818;stroke-width:1.0;"/><line style="stroke:#181818;stroke-width:1.0;" x1="28.5" x2="572" y1="241.125" y2="241.125"/><text fill="#000000" font-family="sans-serif" font-size="13" lengthAdjust="spacing" textLength="136" x="35.5" y="236.0591">GetHebdoProblems()</text><polygon fill="#181818" points="39.5,266.2578,29.5,270.2578,39.5,274.2578,35.5,270.2578" style="stroke:#181818;stroke-width:1.0;"/><line style="stroke:#181818;stroke-width:1.0;stroke-dasharray:2.0,2.0;" x1="33.5" x2="577" y1="270.2578" y2="270.2578"/><text fill="#000000" font-family="sans-serif" font-size="13" lengthAdjust="spacing" textLength="103" x="45.5" y="265.1919">HebdoProblems</text><polygon fill="#181818" points="566,295.3906,576,299.3906,566,303.3906,570,299.3906" style="stroke:#181818;stroke-width:1.0;"/><line style="stroke:#181818;stroke-width:1.0;" x1="28.5" x2="572" y1="299.3906" y2="299.3906"/><text fill="#000000" font-family="sans-serif" font-size="13" lengthAdjust="spacing" textLength="166" x="35.5" y="294.3247">GetSimulationOutputDir()</text><polygon fill="#181818" points="39.5,324.5234,29.5,328.5234,39.5,332.5234,35.5,328.5234" style="stroke:#181818;stroke-width:1.0;"/><line style="stroke:#181818;stroke-width:1.0;stroke-dasharray:2.0,2.0;" x1="33.5" x2="577" y1="328.5234" y2="328.5234"/><text fill="#000000" font-family="sans-serif" font-size="13" lengthAdjust="spacing" textLength="192" x="45.5" y="323.4575">path to simulation file results</text><line style="stroke:#181818;stroke-width:1.0;" x1="28.5" x2="70.5" y1="357.6563" y2="357.6563"/><line style="stroke:#181818;stroke-width:1.0;" x1="70.5" x2="70.5" y1="357.6563" y2="370.6563"/><line style="stroke:#181818;stroke-width:1.0;" x1="29.5" x2="70.5" y1="370.6563" y2="370.6563"/><polygon fill="#181818" points="39.5,366.6563,29.5,370.6563,39.5,374.6563,35.5,370.6563" style="stroke:#181818;stroke-width:1.0;"/><text fill="#000000" font-family="sans-serif" font-size="13" lengthAdjust="spacing" textLength="275" x="35.5" y="352.5903">DoStuff(HebdoProblems, simulation_path)</text><!--SRC=[XL9DJm8n4BttLynD860ldZYOeCIFYnBv0QPiPvScRQUsKoB-UhkBmYwQaFJIDs_UUpFjrPOvfBcKmIhFsTdhYfnC-97HLpZJHZLHEI7Oi4Lu8MUyie2VoeLofnhMncMhc28iLi-GasfGY4NL0lVMe6TnHzbh5VSdQc4ASQZ2x7Q0ps65iQReVa13VYI3ugraaecpta_X1kJaWMA545HKrg8rNnrp8c4iLCLcfnY7Tj5JWMY7ySpkb3zqni1RX7GqXt9QH6CoZI-o6heKegy2ipB5OPwZOEbzmvGj2ut_H_gpW6FB71wHdt2ZQHLfOz6bqLYSamQc0_8bvHFucZbaNffuIRzz0M3gBwOsvGF4Zjft_ErOqffpNOy6oQOzWVTMSoo-0G00]--></g></svg>